<svg width="50" height="51" viewBox="0 0 50 51" fill="none" xmlns="http://www.w3.org/2000/svg">
<path d="M16.875 13.0781C16.875 14.0156 16.0938 14.7969 15.1562 14.7969H7.57812C6.64062 14.7969 5.85938 14.0156 5.85938 13.0781V10.9687C5.85938 10.0312 6.64062 9.25 7.57812 9.25H15.1562C16.0938 9.25 16.875 10.0312 16.875 10.9687V13.0781ZM47.4219 12.9219C47.4219 13.3906 47.0312 13.8594 46.4844 13.8594H42.4219C41.9531 13.8594 41.4844 13.4688 41.4844 12.9219V11.8281C41.4844 11.3594 41.875 10.8906 42.4219 10.8906H46.4844C46.9531 10.8906 47.4219 11.2813 47.4219 11.8281V12.9219ZM50 39.7969C50 42.1406 48.125 44.0156 45.7812 44.0156H4.21875C1.875 44.0156 0 42.1406 0 39.7969V38.5469H50V39.7969Z" fill="#212528"/>
<path d="M0 16.2031C0 13.8594 1.875 11.9844 4.21875 11.9844H45.7031C48.0469 11.9844 49.9219 13.8594 49.9219 16.2031V17.4531H0V16.2031Z" fill="#51575B"/>
<path d="M0 17.2969H50V39.4062H0V17.2969Z" fill="#3E4347"/>
<path d="M42.7344 14.5625H17.6562L20.1562 6.125C20.3906 5.65625 21.4063 4.875 22.0313 4.71875C25.8594 3.625 34.4531 3.625 38.2812 4.71875C38.9062 4.875 39.9219 5.65625 40.1562 6.125L42.7344 14.5625Z" fill="#51575B"/>
<path d="M41.4844 23.625H18.8281L21.0937 12.2187C21.25 11.5937 22.2656 10.5781 22.8125 10.3437C26.25 8.9375 34.0625 8.9375 37.5 10.3437C38.0469 10.5781 38.9844 11.5937 39.2188 12.2187L41.4844 23.625Z" fill="#3E4347"/>
<path d="M47.3438 29.875C47.3438 39.4062 39.6094 47.0625 30.1562 47.0625C20.7031 47.0625 12.9688 39.4062 12.9688 29.875C12.9688 20.4219 20.7031 12.6875 30.1562 12.6875C39.6875 12.6875 47.3438 20.4219 47.3438 29.875Z" fill="#788287"/>
<path d="M45.4688 29.875C45.4688 38.3125 38.5937 45.1875 30.1562 45.1875C21.7187 45.1875 14.8438 38.3125 14.8438 29.875C14.8438 21.4375 21.7187 14.5625 30.1562 14.5625C38.5937 14.6406 45.4688 21.4375 45.4688 29.875Z" fill="#212528"/>
<path d="M30.1562 42.2969C37.0167 42.2969 42.5781 36.7354 42.5781 29.875C42.5781 23.0146 37.0167 17.4531 30.1562 17.4531C23.2958 17.4531 17.7344 23.0146 17.7344 29.875C17.7344 36.7354 23.2958 42.2969 30.1562 42.2969Z" fill="#3E4347"/>
<path d="M30.1562 36.5938C33.8669 36.5938 36.875 33.5857 36.875 29.875C36.875 26.1643 33.8669 23.1562 30.1562 23.1562C26.4456 23.1562 23.4375 26.1643 23.4375 29.875C23.4375 33.5857 26.4456 36.5938 30.1562 36.5938Z" fill="#212528"/>
<path opacity="0.5" d="M39.2969 24.6411C39.2969 26.7505 37.5781 28.4693 35.4688 28.4693C33.3594 28.4693 31.6406 26.7505 31.6406 24.6411C31.6406 22.5318 33.3594 20.813 35.4688 20.813C37.5781 20.7349 39.2969 22.5318 39.2969 24.6411Z" fill="#F5F5F5"/>
<path opacity="0.5" d="M27.8125 34.7188C29.1501 34.7188 30.2344 33.6344 30.2344 32.2969C30.2344 30.9593 29.1501 29.875 27.8125 29.875C26.4749 29.875 25.3906 30.9593 25.3906 32.2969C25.3906 33.6344 26.4749 34.7188 27.8125 34.7188Z" fill="#F5F5F5"/>
<path opacity="0.5" d="M23.5156 38.0781C24.3354 38.0781 25 37.4135 25 36.5938C25 35.774 24.3354 35.1094 23.5156 35.1094C22.6958 35.1094 22.0312 35.774 22.0312 36.5938C22.0312 37.4135 22.6958 38.0781 23.5156 38.0781Z" fill="#F5F5F5"/>
<path d="M11.7188 35.8906C11.7188 36.8281 10.9375 37.6094 10 37.6094H2.8125C1.875 37.6094 1.09375 36.8281 1.09375 35.8906V20.7344C1.09375 19.7969 1.875 19.0156 2.8125 19.0156H10C10.9375 19.0156 11.7188 19.7969 11.7188 20.7344V35.8906Z" fill="#636C72"/>
<path d="M7.89063 17.5312C9.27134 17.5312 10.3906 16.412 10.3906 15.0313C10.3906 13.6505 9.27134 12.5312 7.89063 12.5312C6.50991 12.5312 5.39062 13.6505 5.39062 15.0313C5.39062 16.412 6.50991 17.5312 7.89063 17.5312Z" fill="#212528"/>
</svg>
