<svg width="50" height="51" viewBox="0 0 50 51" fill="none" xmlns="http://www.w3.org/2000/svg">
<path d="M42.7083 44.2507H13.5417C11.25 44.2507 9.375 42.3757 9.375 40.084V19.2507C9.375 16.959 11.25 15.084 13.5417 15.084H42.7083C45 15.084 46.875 16.959 46.875 19.2507V40.084C46.875 42.3757 45 44.2507 42.7083 44.2507Z" fill="#030218"/>
<path d="M36.4583 38.0007H7.29167C5 38.0007 3.125 36.1257 3.125 33.834V13.0007C3.125 10.709 5 8.83398 7.29167 8.83398H36.4583C38.75 8.83398 40.625 10.709 40.625 13.0007V33.834C40.625 36.1257 38.75 38.0007 36.4583 38.0007Z" fill="#3B3B3B"/>
<path d="M31.25 20.291C32.9759 20.291 34.375 18.8919 34.375 17.166C34.375 15.4401 32.9759 14.041 31.25 14.041C29.5241 14.041 28.125 15.4401 28.125 17.166C28.125 18.8919 29.5241 20.291 31.25 20.291Z" fill="white"/>
<path d="M17.708 19.1465L8.33301 32.7923H27.083L17.708 19.1465Z" fill="#6B6B6B"/>
<path d="M29.167 24.9785L22.917 32.791H35.417L29.167 24.9785Z" fill="white"/>
</svg>
